<svg width="990" height="990" viewBox="0 0 990 990" fill="none" xmlns="http://www.w3.org/2000/svg">
<path fill-rule="evenodd" clip-rule="evenodd" d="M542.101 1.09765C558.613 2.63492 598.738 9.70754 616.499 14.209C665.484 26.6253 727.654 54.0697 766.704 80.5131C783.496 91.8858 786.299 94.5693 787.821 100.724C791.084 113.928 782.041 125.572 768.526 125.572C765.469 125.572 754.62 120.004 741.808 111.857C693.344 81.0455 631.696 56.2536 581.288 47.301C574.008 46.0077 574.008 46.0077 583.896 61.1055C609.236 99.7871 633.869 166.341 647.585 233.174C651.984 254.618 651.984 254.618 662.876 256.879C690.051 262.523 714.726 284.308 723.029 309.987C725.375 317.247 725.375 317.247 820.077 317.247C914.778 317.247 914.778 317.247 909.864 306.115C903.238 291.1 889.776 266.349 880.067 251.329C871.068 237.404 869.327 232.3 871.13 225.116C874.466 211.824 891.096 206.213 901.922 214.728C914.571 224.678 948.996 290.434 963.173 331.728C981.581 385.346 988.398 424.049 989.779 482.785C991.33 548.75 984.905 592.892 964.983 653.163C953.703 687.293 930.619 735.469 911.75 764.261C898.576 784.36 898.576 784.36 902.613 791.372C916.8 816.023 916.118 851.363 900.996 875.183C894.626 885.216 882.592 896.964 872.23 903.27C850.021 916.78 814.14 916.792 790.685 903.293C783.672 899.256 783.672 899.256 763.572 912.43C721.911 939.729 663.166 964.995 612.38 977.454C569.316 988.019 550.719 990 494.663 990C438.589 990 419.963 988.014 376.945 977.446C335.738 967.322 307.932 956.951 269.122 937.229C177.176 890.505 101.573 815.243 54.0289 723.103C33.8842 684.065 22.5785 654.086 12.5372 613.08C1.97498 569.955 0 551.399 0 495.37C0 439.317 1.98083 420.721 12.5469 377.66C25.0066 326.878 50.2745 268.136 77.5754 226.479C90.7496 206.38 90.7496 206.38 86.7126 199.367C72.5258 174.717 73.2073 139.377 88.3293 115.557C94.6996 105.524 106.733 93.7755 117.096 87.4696C139.305 73.9594 175.185 73.9477 198.641 87.4463C205.654 91.4831 205.654 91.4831 225.754 78.3098C284.881 39.5663 364.058 11.0357 435.722 2.65234C458.527 -0.0136826 520.446 -0.919783 542.101 1.09765ZM476.268 44.6098C432.957 66.0736 390.824 167.501 370.056 300.306C367.407 317.247 367.407 317.247 466.593 317.247C565.777 317.247 565.777 317.247 569.245 308.051C575.679 290.978 588.659 275.665 605.511 265.267C611.122 261.803 612.56 259.834 611.848 256.587C590.307 158.293 566.155 97.1385 535.481 63.2333C514.114 39.6166 497.128 34.2729 476.268 44.6098ZM391.391 50.9855C362.931 57.4405 327.815 69.5915 301.347 82.1433C279.792 92.364 244.096 112.757 235.879 119.543C231.71 122.986 231.71 122.986 235.331 133.475C242.076 153.015 239.18 182.051 228.778 199.145C217.988 216.875 199.708 231.294 181.124 236.728C166.914 240.883 145.828 240.572 132.613 236.01C126.77 233.993 121.542 232.934 120.996 233.654C110.319 247.712 84.7048 292.639 77.4729 309.987C74.4465 317.247 74.4465 317.247 201.297 317.247C328.146 317.247 328.146 317.247 328.146 312.593C328.146 304.264 337.98 249.205 344.604 220.442C360.21 152.686 381.573 96.9294 406.428 59.0881C411.089 51.9942 414.332 46.1994 413.637 46.2091C412.942 46.2188 402.931 48.3678 391.391 50.9855ZM139.363 121.187C124.826 128.449 116.482 142.051 116.482 158.486C116.482 182.111 134.139 199.77 157.757 199.77C181.371 199.77 199.024 182.116 199.038 158.486C199.055 127.468 166.956 107.404 139.363 121.187ZM849.144 148.657C861.615 161.129 853.082 181.72 835.441 181.72C824.12 181.72 816.079 173.679 816.079 162.358C816.079 144.718 836.671 136.186 849.144 148.657ZM627.295 299.309C612.758 306.572 604.415 320.173 604.415 336.609C604.415 360.233 622.071 377.892 645.69 377.892C669.304 377.892 686.957 360.239 686.97 336.609C686.988 305.59 654.889 285.526 627.295 299.309ZM723.029 363.23C717.028 381.784 699.05 402.067 681.448 410.14C671.829 414.553 671.829 414.553 672.51 479.437C673.111 536.719 671.196 593.625 667.627 624.605C666.456 634.77 666.456 634.77 798.385 634.77C870.948 634.77 930.317 634.392 930.317 633.933C930.317 633.473 932.845 623.234 935.936 611.184C955.906 533.286 955.468 450.367 934.683 374.847C929.488 355.97 929.488 355.97 827.433 355.97C725.375 355.97 725.375 355.97 723.029 363.23ZM362.948 357.422C362.921 358.219 362.044 367.586 361 378.235C357.68 412.111 355.501 489.17 356.661 531.697C357.784 572.824 357.784 572.824 365.715 574.932C392.609 582.08 414.065 602.973 423.688 631.382C424.763 634.551 431.361 634.77 525.583 634.77C580.992 634.77 626.343 634.117 626.36 633.318C626.379 632.518 627.233 623.902 628.259 614.168C631.47 583.703 633.844 494.119 632.477 454.973C631.168 417.48 631.168 417.48 620.342 414.134C597.338 407.027 575.493 385.65 568.325 363.23C566.004 355.97 566.004 355.97 464.5 355.97C408.674 355.97 362.975 356.624 362.948 357.422ZM55.4714 371.093C43.6971 414.053 39.0501 449.664 39.1256 496.338C39.1915 537.492 42.6651 565.883 52.567 606.212C59.5781 634.77 59.5781 634.77 162.882 634.77C244.233 634.77 266.187 634.255 266.188 632.35C266.188 631.02 268.696 624.632 271.757 618.16C278.482 603.949 292.821 589.116 307.028 581.68C317.497 576.199 317.497 576.199 316.815 511.308C316.215 454.022 318.13 397.114 321.699 366.134C322.87 355.97 322.87 355.97 191.244 355.97C59.6169 355.97 59.6169 355.97 55.4714 371.093ZM332.615 614.443C325.631 616.516 320.579 619.788 314.984 625.858C298.464 643.779 299.019 666.491 316.391 683.343C331.837 698.329 350.835 700.11 368.412 688.218C401.522 665.817 386.075 614.386 345.441 611.734C343.77 611.626 337.998 612.845 332.615 614.443ZM661.179 678.146C661.179 686.476 651.345 741.535 644.721 770.298C629.115 838.054 607.753 893.81 582.897 931.651C578.237 938.745 574.994 944.54 575.689 944.53C576.384 944.521 586.394 942.372 597.934 939.754C642.404 929.667 694.911 908.102 732.995 884.282C760.218 867.256 758.293 869.721 754.024 857.351C739.531 815.372 765.053 766.698 808.202 754.025C822.393 749.856 843.484 750.164 856.713 754.729C862.556 756.747 867.784 757.806 868.33 757.086C879.006 743.028 904.621 698.1 911.853 680.753C914.879 673.492 914.879 673.492 788.028 673.492C661.179 673.492 661.179 673.492 661.179 678.146ZM423.721 676.88C417.2 696.677 400.474 717.513 384.611 725.606C378.008 728.975 376.68 730.542 377.451 734.048C399.58 834.666 423.442 894.451 455.2 928.842C469.333 944.147 481.949 951.142 495.062 950.943C544.517 950.197 595.305 843.676 619.27 690.433C621.918 673.492 621.918 673.492 523.377 673.492C431.245 673.492 424.765 673.713 423.721 676.88ZM81.4344 688.497C101.366 732.232 135.678 781.072 171.965 817.355C216.679 862.066 274.919 899.818 333.955 922.358C349.567 928.319 407.638 944.548 413.354 944.548C414.369 944.548 410.777 937.795 405.375 929.543C380.175 891.053 357.546 830.197 342.381 760.133C337.914 739.504 336.458 735.448 333.511 735.448C326.721 735.448 307.723 727.603 297.528 720.588C285.77 712.499 273.387 696.327 268.572 682.768C265.278 673.492 265.278 673.492 169.938 673.492C74.5956 673.492 74.5956 673.492 81.4344 688.497ZM813.174 794.954C798.637 802.216 790.294 815.818 790.294 832.253C790.294 855.878 807.95 873.537 831.568 873.537C855.183 873.537 872.836 855.884 872.849 832.253C872.867 801.235 840.768 781.171 813.174 794.954Z" fill="white"/>
</svg>
