<svg width="990" height="990" viewBox="0 0 990 990" fill="none" xmlns="http://www.w3.org/2000/svg">
<path d="M487.631 0.437234C422.961 6.28548 370.876 19.9986 319.953 44.6015L302.527 53.0714L295.169 46.4165C284.713 36.9383 271.353 32.7034 255.476 33.9134C233.597 35.5267 216.945 47.4248 206.877 68.1962C200.487 81.7076 199.325 97.8407 203.585 112.965L205.909 120.629L182.286 145.433C160.988 167.818 158.471 171.045 158.471 177.498C158.471 182.539 159.826 185.564 163.505 188.589C172.993 196.252 176.09 194.639 200.874 168.625L223.916 144.425L234.371 149.467C248.506 156.323 269.417 156.525 283.358 149.668C293.233 145.03 304.269 135.148 309.691 126.477L312.595 121.637L331.958 128.292C371.651 142.005 417.733 162.978 446.389 180.321L460.33 188.791L459.169 199.479C458.394 206.537 459.169 214.201 461.298 221.46L464.396 232.754L431.868 266.835C414.054 285.388 391.013 311.604 380.751 324.914L362.357 349.113L347.254 348.508C333.7 347.903 331.183 348.307 319.953 354.155C312.789 357.785 305.238 363.432 302.14 367.666C299.235 371.498 295.556 376.338 294.007 378.355C291.49 381.581 285.875 382.388 252.378 384.405C208.426 387.026 179.576 390.253 138.334 397.714C110.452 402.756 109.484 402.756 107.548 399.126C104.837 394.286 94.5748 383.598 89.9279 380.976C86.249 378.96 86.4426 377.75 95.3493 349.517C103.288 323.905 121.101 283.169 138.14 251.105C144.143 240.013 142.594 233.157 133.493 228.317C121.876 221.864 116.067 228.115 95.7366 269.456C83.3446 294.664 69.4037 330.762 63.595 353.348L59.1417 369.885L48.2987 372.103C17.3189 378.556 -2.62435 405.781 0.280009 437.845C2.40987 460.835 15.7699 479.993 35.5196 488.665L43.6518 492.093L44.8135 521.536C49.4605 642.332 104.45 768.573 189.063 852.667C204.36 867.994 204.747 868.397 202.617 874.648C199.519 883.925 201.649 906.31 206.683 916.393C215.396 934.139 233.403 947.651 251.797 950.272C265.157 952.289 276.775 949.667 288.586 942.206L299.235 935.551L310.659 941.601C351.514 963.179 409.214 980.723 461.492 987.58C486.47 990.807 548.816 990.807 573.794 987.58C626.072 980.723 685.128 962.574 727.725 939.987L736.438 935.349L743.021 941.197C757.543 953.701 782.714 956.927 800.527 948.256C822.02 937.971 834.412 919.821 835.767 897.033C836.348 890.177 835.573 880.497 834.218 875.858L832.088 867.187L852.031 846.012C925.802 767.968 970.336 675.405 986.406 565.902C990.666 537.265 991.247 461.44 987.568 433.812C978.468 367.868 959.88 306.764 933.934 258.97C926.189 244.45 925.415 242.232 927.932 239.408C938.194 227.51 941.873 200.891 935.677 182.136C931.611 169.633 917.864 154.105 905.472 147.652C894.241 141.803 876.428 140.593 863.068 144.627L855.71 147.047L840.414 132.527L824.924 118.007L825.892 101.269C826.667 88.7658 826.086 81.9093 823.762 74.2461C816.986 53.4747 795.88 36.1317 774.195 34.115C758.898 32.7034 751.734 34.3167 738.374 42.5849L727.144 49.8448L705.652 40.3666C662.861 21.6119 623.555 10.1171 580.571 4.06718C560.047 1.24389 503.508 -0.97441 487.631 0.437234ZM579.99 34.5184C620.07 40.5683 659.182 52.0631 694.228 68.1962L712.235 76.2627L711.073 84.7326C710.299 89.1692 709.524 93.2024 709.331 93.6058C708.943 94.0091 697.326 98.244 683.385 103.286C643.886 117.2 602.644 136.762 567.792 157.735L560.047 162.575L551.914 156.323C531.584 140.795 502.928 140.795 482.403 156.323L474.658 162.171L466.139 157.13C432.061 136.56 370.295 108.529 334.281 97.2357C317.823 91.9925 317.242 91.5891 317.242 85.9426C317.242 80.4976 318.598 79.2877 330.409 73.0361C371.07 51.8614 433.804 34.9217 487.631 30.6868C507.381 29.2751 558.691 31.2917 579.99 34.5184ZM272.709 67.3895C293.039 77.876 293.62 109.134 273.871 121.435C264.77 127.082 251.217 126.275 242.891 119.419C233.016 111.755 229.531 103.487 230.499 91.5891C231.08 86.1442 233.21 79.086 235.339 76.2627C240.18 69.2045 250.636 63.7596 259.155 63.7596C262.834 63.7596 269.03 65.3729 272.709 67.3895ZM783.489 67.7928C802.076 79.691 802.27 109.537 783.876 120.83C777.293 124.864 764.513 125.67 756.575 122.645C745.151 118.007 737.406 101.471 740.117 87.7575C743.796 67.9945 767.031 57.3063 783.489 67.7928ZM725.982 135.148C737.793 148.458 750.572 154.71 767.224 154.911C780.197 155.113 791.621 152.088 799.947 146.038C802.851 143.82 805.949 142.408 806.917 142.812C807.885 143.215 814.081 148.862 820.664 155.315L832.669 167.213L828.022 177.296C824.537 185.564 823.569 190.808 823.762 203.714C823.762 223.679 829.377 236.384 843.318 249.088L852.419 257.558L845.061 281.153C828.409 334.19 805.368 389.244 778.648 439.459C764.126 466.885 763.545 467.49 758.124 466.28C755.026 465.675 749.217 465.07 745.345 465.07C738.374 465.07 738.374 464.868 727.725 443.492C694.034 374.926 643.498 305.151 590.639 253.525L570.115 233.359L572.826 225.695C574.181 221.46 575.537 211.176 575.537 202.907L575.73 187.984L583.475 183.144C598.384 174.07 636.722 154.508 653.567 147.248C670.025 139.988 711.46 124.662 714.752 124.46C715.72 124.259 720.754 129.099 725.982 135.148ZM895.79 176.691C920.962 192.824 910.119 233.157 880.494 233.157C864.617 233.157 851.644 219.444 851.644 202.907C851.644 179.716 876.815 164.793 895.79 176.691ZM532.165 179.111C542.62 186.573 546.106 193.228 546.106 204.722C546.106 222.872 534.488 235.779 517.837 235.779C495.57 235.779 481.629 212.991 491.31 192.421C498.861 175.884 518.611 169.633 532.165 179.111ZM494.602 261.591C507.381 267.641 525.582 267.44 540.491 261.591L551.527 256.953L569.728 274.296C587.928 291.841 613.68 320.881 633.817 347.097C652.018 370.49 685.321 424.132 698.681 451.357C710.686 475.758 711.073 477.17 707.975 480.598C704.684 483.825 703.716 483.623 686.677 475.355C622.2 444.097 557.142 420.502 493.44 405.579C468.463 399.731 415.99 390.454 407.858 390.454C403.792 390.454 401.856 388.841 399.339 383.8C397.596 380.371 394.111 374.523 391.787 371.095L387.334 365.045L404.954 341.854C422.38 319.267 479.693 257.357 483.372 257.357C484.34 257.357 489.374 259.373 494.602 261.591ZM912.055 280.548C934.515 324.712 950.392 377.75 958.525 435.829C962.397 463.255 961.816 535.249 957.556 563.885C953.684 588.69 943.035 634.266 937.807 648.18L934.515 656.65L919.606 642.534C892.886 616.923 851.063 580.825 827.441 563.078L804.4 545.735L804.981 528.997C805.368 514.074 804.787 511.251 799.947 501.369C796.849 495.319 793.17 488.463 791.814 486.043C789.491 482.413 790.653 479.186 804.981 452.567C831.12 403.563 854.936 346.693 872.556 291.236L881.269 263.608L889.207 262.801C893.467 262.398 898.501 262.196 900.05 262.196C901.599 262.398 907.021 270.666 912.055 280.548ZM361.195 382.388C368.359 386.824 375.329 399.731 375.329 407.999C375.329 417.276 367.391 430.989 359.84 435.224C346.092 442.685 328.472 438.249 320.728 425.141C312.402 411.024 316.468 391.463 330.021 382.186C337.573 376.943 352.869 377.145 361.195 382.388ZM73.4698 405.781C81.602 410.016 86.8299 420.502 86.8299 432.199C86.8299 471.12 32.8088 473.741 29.13 434.82C26.8065 409.612 51.2031 393.681 73.4698 405.781ZM288.78 421.914C289.554 426.351 293.039 435.022 296.525 441.072L302.914 451.962L293.814 472.128C267.287 531.619 248.506 600.386 238.437 674.8C235.727 694.765 234.952 713.721 234.952 766.759V833.711L228.563 837.946C222.754 841.979 221.979 841.979 217.526 838.954C210.362 834.114 183.448 802.453 168.346 780.875C114.712 705.453 78.3104 603.008 73.8571 515.486L72.6953 492.294L82.9574 487.455C101.545 478.783 113.744 461.843 115.486 442.484C116.454 431.392 112.195 433.005 161.375 425.947C207.845 419.292 266.9 413.041 280.454 413.444C286.65 413.646 287.231 414.251 288.78 421.914ZM452.779 427.964C525.001 441.677 602.063 467.288 667.314 499.554L689.387 510.444L689.581 526.577C689.968 539.282 690.936 544.929 695.002 553.197L699.843 563.482L679.706 588.488C641.756 634.871 586.767 689.32 540.684 725.619C480.661 773.01 405.535 817.174 335.056 846.416L309.497 857.104L303.495 849.642C296.718 840.971 284.907 833.307 273.483 830.283L265.545 828.064L264.383 811.528C262.447 785.715 262.834 726.829 265.157 701.016C271.353 630.232 289.167 558.642 316.468 493.908L327.311 468.095H345.124C359.84 468.095 364.099 467.288 371.263 463.457C383.462 456.6 396.047 442.282 399.92 430.384L403.405 420.301L415.022 421.712C421.412 422.317 438.451 425.141 452.779 427.964ZM764.513 501.369C781.746 514.074 779.616 543.114 760.641 553.197C750.185 558.843 744.764 559.045 734.502 553.802C713.784 543.315 712.429 512.864 732.372 500.159C742.247 493.908 755.026 494.311 764.513 501.369ZM807.692 585.463C843.125 612.083 881.075 645.559 906.827 672.582L922.123 688.916L914.959 704.243C893.273 749.819 854.161 804.268 821.245 834.921L813.113 842.382L805.174 838.147C797.623 834.114 797.042 833.307 798.204 827.459C798.979 823.829 799.947 804.066 800.721 783.497L801.883 745.786L796.849 740.542C790.653 734.089 783.101 733.887 777.293 739.937C773.226 744.374 772.839 746.592 771.484 782.69C770.903 803.865 769.741 823.224 769.16 826.048C768.386 830.081 765.869 832.097 758.124 834.921C750.96 837.542 744.764 841.979 737.212 850.046C724.046 864.162 719.399 876.06 720.174 895.823L720.561 909.335L709.524 915.183C692.873 923.854 661.699 936.156 638.658 943.012C538.361 973.06 426.833 964.187 332.732 918.611L315.693 910.343L316.661 898.848C317.242 892.597 318.21 886.95 318.985 886.345C319.566 885.538 332.732 879.892 348.222 873.439C441.549 834.719 532.552 776.64 607.678 707.671C637.69 680.043 682.611 632.249 705.071 604.016L722.11 582.64L732.178 585.463C737.6 586.875 743.989 588.085 746.313 588.085C750.185 588.085 751.153 590.101 754.832 606.436C756.962 616.519 760.641 634.064 762.577 645.357C767.031 670.767 767.418 671.977 774.001 674.8C780.003 677.22 787.167 675.203 791.427 669.96C795.106 665.322 793.17 646.567 785.038 609.259L778.454 579.01L782.52 575.582C784.844 573.565 787.361 571.952 788.329 571.952C789.104 571.952 797.817 578.001 807.692 585.463ZM272.709 862.952C293.62 874.447 293.62 905.503 272.709 916.998C259.155 924.661 242.116 919.216 234.178 904.696C227.207 891.79 229.531 877.27 240.18 866.985C249.861 857.507 260.51 856.095 272.709 862.952ZM796.655 868.397C803.819 875.657 807.111 883.118 807.111 893C807.111 923.249 768.386 934.139 752.702 908.326C749.604 903.083 749.023 899.251 749.604 889.773C750.185 878.883 750.96 877.27 758.511 869.809C766.643 861.944 767.031 861.944 779.035 862.75C788.91 863.355 792.589 864.565 796.655 868.397Z" fill="white"/>
</svg>
